<?xml version="1.0" standalone="no"?>
<!DOCTYPE svg PUBLIC "-//W3C//DTD SVG 20010904//EN"
 "http://www.w3.org/TR/2001/REC-SVG-20010904/DTD/svg10.dtd">
<svg version="1.0" xmlns="http://www.w3.org/2000/svg"
 width="1024.000000pt" height="1024.000000pt" viewBox="0 0 1024.000000 1024.000000"
 preserveAspectRatio="xMidYMid meet">

<g transform="translate(0.000000,1024.000000) scale(0.100000,-0.100000)"
fill="currentColor" stroke="none">
<path d="M2668 6550 c-4 -14 -8 -89 -8 -167 l0 -143 -195 0 c-123 0 -195 -4
-195 -10 0 -6 71 -10 194 -10 l194 0 7 -152 c4 -84 5 -186 3 -226 l-3 -74
-197 2 c-131 0 -198 -3 -198 -10 0 -6 67 -10 195 -10 149 0 195 -3 196 -12 3
-58 8 -1341 5 -1346 -2 -4 -43 -6 -90 -4 l-86 3 0 310 c0 230 -3 308 -11 303
-9 -5 -11 -91 -8 -313 l4 -306 -190 -5 -190 -6 186 -2 186 -2 5 -65 c3 -36 4
-122 1 -192 -2 -71 0 -171 5 -223 9 -94 9 -94 11 77 l1 172 86 3 c47 2 87 1
89 -1 2 -2 2 -109 -1 -237 -4 -162 -2 -234 5 -234 8 0 11 75 11 234 l0 235 47
7 c25 4 97 4 159 0 l113 -7 3 113 3 113 2568 3 c1412 1 2567 5 2567 10 0 4
-125 7 -277 7 l-278 0 -3 683 -2 682 200 0 c131 0 200 4 200 10 0 7 -67 10
-197 10 l-198 -2 -3 226 -2 226 200 0 c127 0 200 4 200 10 0 6 -73 10 -200 10
l-200 0 -3 168 -3 167 -2 -167 -2 -168 -344 0 c-215 0 -347 -4 -351 -10 -4 -6
86 -11 252 -12 l258 -3 -47 -23 c-120 -59 -202 -180 -201 -295 1 -34 6 -75 12
-91 6 -16 10 -30 9 -32 -7 -6 -778 -11 -1000 -6 l-238 5 0 204 c0 192 -1 203
-19 203 -14 0 -22 -12 -30 -46 -31 -123 -127 -246 -231 -297 -30 -15 -97 -36
-149 -47 -89 -19 -132 -20 -678 -20 l-583 0 0 275 0 275 -37 -20 c-53 -28
-119 -25 -269 12 -119 30 -142 33 -289 33 -179 0 -258 -16 -384 -78 l-66 -32
-252 3 -253 3 -2 167 c-2 92 -6 156 -10 142z m1087 -255 c177 -47 338 -222
434 -474 l19 -51 -554 0 -554 0 6 28 c36 150 144 329 249 412 113 90 261 121
400 85z m-635 -102 c-107 -81 -242 -254 -291 -372 -18 -43 -25 -49 -57 -55
-21 -3 -49 -6 -64 -6 l-28 0 0 230 0 230 238 0 237 0 -35 -27z m4443 -5 c2
-18 5 -120 6 -225 l2 -193 -93 2 c-70 1 -78 3 -33 5 l60 4 0 210 c-1 173 -3
212 -15 219 -11 7 -3 10 26 10 39 0 42 -2 47 -32z m-190 -335 l-5 -83 -94 0
c-93 0 -95 0 -106 28 -7 15 -12 59 -12 97 0 56 5 80 26 120 29 57 100 130 150
156 l33 17 7 -126 c4 -70 4 -164 1 -209z m-4573 -107 c0 -2 -7 -23 -16 -47
-24 -67 -44 -204 -44 -304 0 -547 377 -946 895 -947 136 0 238 21 332 67 129
64 224 150 314 287 l25 36 32 -61 c74 -143 188 -243 332 -294 101 -35 272 -43
384 -19 210 47 372 197 450 415 29 81 31 94 30 231 0 164 -11 217 -72 334 -67
129 -171 220 -315 277 l-72 28 115 1 c63 0 192 -3 287 -7 l172 -6 3 -521 c4
-568 2 -551 64 -638 20 -29 52 -55 95 -78 63 -34 67 -35 179 -35 106 0 120 2
172 28 52 25 98 67 128 114 9 15 12 15 17 4 15 -37 88 -101 146 -126 189 -86
443 -9 545 164 l27 45 7 -44 c20 -116 104 -182 238 -188 90 -5 148 9 190 44
42 36 76 104 52 104 -5 0 -15 -11 -22 -25 -34 -64 -128 -85 -171 -39 l-24 26
-5 446 c-5 433 -6 449 -28 503 -40 99 -117 170 -226 209 l-51 19 293 0 292 1
-2 -682 -3 -683 -2310 -3 c-1270 -2 -2370 0 -2442 3 l-133 7 0 679 0 679 60 0
c33 0 60 -2 60 -4z m1889 -15 c-200 -64 -355 -233 -405 -446 -21 -89 -23 -238
-5 -338 l14 -77 -38 -58 c-86 -130 -239 -250 -375 -293 -83 -27 -250 -37 -329
-19 -130 28 -258 118 -336 236 -142 214 -200 627 -134 957 l12 57 826 -1 c802
-1 824 -1 770 -18z m1861 -5 c-83 -29 -103 -40 -152 -84 -107 -97 -111 -250
-8 -319 83 -57 200 5 200 106 0 17 -6 55 -14 85 -32 123 37 203 184 214 114 8
196 -29 239 -108 21 -37 25 -61 29 -149 3 -97 2 -110 -20 -151 -45 -83 -121
-124 -349 -189 -201 -57 -302 -117 -354 -212 -28 -51 -30 -60 -30 -170 -1
-105 -3 -118 -24 -144 -72 -93 -188 -112 -265 -44 -65 57 -66 62 -66 651 l0
528 178 3 c97 1 254 3 347 4 l170 2 -65 -23z m-1514 -29 c98 -50 159 -151 193
-322 28 -143 34 -262 21 -403 -18 -200 -58 -324 -132 -407 -47 -54 -101 -78
-188 -83 -250 -14 -382 194 -381 602 0 252 50 446 142 551 81 92 232 119 345
62z m1982 -742 c-3 -199 -3 -200 -33 -258 -140 -278 -475 -187 -453 122 11
148 78 228 255 306 103 45 205 104 221 128 11 17 14 -73 10 -298z m-4028 -690
l0 -105 -152 0 -153 0 0 105 -1 105 153 0 153 0 0 -105z"/>
<path d="M7574 3910 c0 -135 2 -190 3 -122 2 67 2 177 0 245 -1 67 -3 12 -3
-123z"/>
<path d="M4127 4074 c-4 -4 -7 -65 -7 -135 0 -118 1 -127 20 -132 18 -5 20 1
22 102 l3 106 30 -65 c51 -112 70 -145 80 -145 6 1 30 48 55 105 l45 105 7
-55 c3 -30 6 -79 7 -107 1 -40 5 -53 16 -53 13 0 15 22 15 140 l0 140 -29 0
c-23 0 -31 -6 -39 -27 -31 -90 -76 -183 -83 -176 -5 5 -26 52 -48 104 -32 79
-42 94 -62 97 -14 2 -28 0 -32 -4z"/>
<path d="M4650 4060 c-6 -12 -32 -70 -56 -128 -25 -59 -48 -113 -51 -119 -3
-8 3 -13 14 -13 14 0 26 13 38 40 l18 40 69 0 69 0 15 -35 c14 -34 38 -54 51
-42 3 3 -20 66 -50 139 -49 117 -59 133 -81 136 -17 2 -28 -3 -36 -18z m59
-79 c11 -27 21 -54 21 -60 0 -6 -21 -11 -50 -11 -27 0 -50 2 -50 4 0 14 44
116 50 116 4 0 17 -22 29 -49z"/>
<path d="M4940 3939 l0 -141 90 4 c96 4 117 15 146 70 31 61 8 154 -48 188
-26 15 -50 20 -110 20 l-78 0 0 -141z m155 97 c42 -18 55 -42 55 -101 0 -69
-30 -95 -110 -95 l-60 0 0 98 c0 54 3 102 7 105 11 12 72 8 108 -7z"/>
<path d="M5320 3940 c0 -133 1 -140 20 -140 18 0 20 7 20 60 l0 60 43 0 c42 0
44 -2 81 -60 25 -38 45 -60 57 -60 25 0 25 2 -17 65 l-36 54 28 24 c37 33 38
81 0 114 -24 20 -37 23 -112 23 l-84 0 0 -140z m168 94 c47 -33 11 -84 -59
-84 -58 0 -69 8 -69 49 0 21 3 41 7 44 13 13 99 7 121 -9z"/>
<path d="M5680 3939 c0 -128 2 -140 18 -137 15 3 17 19 20 141 2 132 2 137
-18 137 -19 0 -20 -6 -20 -141z"/>
<path d="M5860 3939 l0 -141 90 4 c86 4 93 6 122 36 27 26 32 40 35 89 7 107
-46 153 -177 153 l-70 0 0 -141z m185 76 c20 -19 25 -34 25 -75 0 -74 -28
-100 -110 -100 l-60 0 0 100 0 100 60 0 c51 0 65 -4 85 -25z"/>
</g>
</svg>
